<?xml version="1.0" encoding="utf-8"?>
<!-- Generator: Adobe Illustrator 14.0.0, SVG Export Plug-In . SVG Version: 6.00 Build 43363)  -->
<!DOCTYPE svg PUBLIC "-//W3C//DTD SVG 1.1//EN" "http://www.w3.org/Graphics/SVG/1.1/DTD/svg11.dtd">
<svg version="1.1" id="Livello_1" xmlns="http://www.w3.org/2000/svg" xmlns:xlink="http://www.w3.org/1999/xlink" x="0px" y="0px"
	 width="170.08px" height="56.689px" viewBox="0 0 170.08 56.689" enable-background="new 0 0 170.08 56.689" xml:space="preserve">
<path fill="#FFFFFF" d="M31.526,12.264l-5.885-0.009l-2.723,0.009v0.915c0,0.022-0.019,0.043-0.042,0.043h-1.208
	c-0.024,0-0.044-0.021-0.044-0.043v-0.924h-1.039v0.924c0,0.022-0.02,0.043-0.044,0.043h-1.207c-0.024,0-0.044-0.021-0.044-0.043
	v-0.924h-1.039v0.924c0,0.022-0.019,0.043-0.044,0.043h-1.21c-0.025,0-0.044-0.021-0.044-0.043v-0.924h-1.039v0.924
	c0,0.022-0.02,0.043-0.043,0.043h-1.193c-0.034,0-0.059-0.025-0.059-0.056v-0.912H13.58v0.923c0,0.023-0.02,0.044-0.044,0.044
	h-1.207c-0.023,0-0.043-0.021-0.043-0.044v-0.923H8.023v15.82c0,4.322,2.37,8.289,6.188,10.352l0.368,0.195l0.146,0.063l0.143,0.064
	c1.546,0.717,3.197,1.08,4.907,1.08c6.481,0,11.755-5.271,11.755-11.754L31.526,12.264z M14.622,31.833h-2.247v-1.367h2.247V31.833z
	 M14.622,29.196h-2.247v-1.368h2.247V29.196z M14.622,26.557h-2.247V25.19h2.247V26.557z M14.622,23.924h-2.247v-1.371h2.247V23.924
	z M14.622,21.282h-2.247v-1.366h2.247V21.282z M14.622,18.649h-2.247v-1.371h2.247V18.649z M14.622,16.012h-2.247v-1.368h2.247
	V16.012z"/>
<path fill="#007D34" d="M31.573,12.208l0.001,15.865c0,6.499-5.288,11.787-11.787,11.787c-1.614,0-3.182-0.324-4.66-0.964
	l-0.464-0.2v7.66h24.832l0.001-34.147L31.573,12.208L31.573,12.208z"/>
<rect x="14.663" y="14.587" fill="#007D34" width="8.236" height="1.477"/>
<rect x="14.664" y="17.222" fill="#007D34" width="8.235" height="1.479"/>
<rect x="14.663" y="19.859" fill="#007D34" width="8.236" height="1.479"/>
<rect x="14.663" y="22.497" fill="#007D34" width="8.236" height="1.479"/>
<rect x="14.663" y="25.133" fill="#007D34" width="8.236" height="1.479"/>
<rect x="14.663" y="27.771" fill="#007D34" width="8.236" height="1.477"/>
<rect x="14.663" y="30.408" fill="#007D34" width="8.236" height="1.476"/>
<rect x="14.662" y="12.199" fill="#007D34" width="1.23" height="0.989"/>
<rect x="16.998" y="12.199" fill="#007D34" width="1.23" height="0.989"/>
<rect x="19.333" y="12.199" fill="#007D34" width="1.23" height="0.989"/>
<rect x="21.667" y="12.199" fill="#007D34" width="1.229" height="0.989"/>
<path fill="#3C4B97" d="M14.674,46.39c-0.023,0-0.043-0.023-0.043-0.044v-7.602l-0.155-0.092c-4.028-2.034-6.529-6.089-6.529-10.581
	V12.178h4.438v0.955h1.119v-0.955h25.98c0.024,0,0.043,0.02,0.043,0.044v34.124c0,0.021-0.018,0.044-0.043,0.044H14.674z
	 M14.718,46.302h24.723v-34.04h-7.813v15.811c0,6.529-5.312,11.839-11.842,11.839c-1.627,0-3.202-0.325-4.68-0.965l-0.388-0.169
	V46.302z M8.033,28.073c0,4.321,2.37,8.288,6.188,10.35l0.368,0.195l0.146,0.063l0.143,0.064c1.546,0.716,3.197,1.079,4.907,1.079
	c6.481,0,11.755-5.271,11.755-11.752l-0.004-15.811l-5.885-0.009l-2.723,0.009v0.915c0,0.022-0.019,0.043-0.042,0.043h-1.208
	c-0.024,0-0.044-0.021-0.044-0.043v-0.924h-1.039v0.924c0,0.022-0.02,0.043-0.044,0.043h-1.207c-0.024,0-0.044-0.021-0.044-0.043
	v-0.924h-1.039v0.924c0,0.022-0.019,0.043-0.044,0.043h-1.21c-0.025,0-0.044-0.021-0.044-0.043v-0.924h-1.039v0.924
	c0,0.022-0.02,0.043-0.043,0.043h-1.193c-0.034,0-0.059-0.025-0.059-0.056v-0.912H13.59v0.923c0,0.023-0.02,0.044-0.044,0.044
	h-1.207c-0.023,0-0.043-0.021-0.043-0.044v-0.923H8.033V28.073z M21.723,13.134h1.12v-0.879h-1.12V13.134z M19.389,13.134h1.12
	v-0.879h-1.12V13.134z M17.051,13.134h1.124v-0.879h-1.124V13.134z M14.718,13.134h1.12v-0.879h-1.12V13.134z"/>
<path fill="#1D1D1B" d="M12.341,31.916c-0.024,0-0.043-0.02-0.043-0.043v-1.454c0-0.024,0.019-0.045,0.043-0.045h10.546
	c0.023,0,0.042,0.021,0.042,0.045v1.454c0,0.023-0.019,0.043-0.042,0.043H12.341z M14.718,31.829h8.125v-1.367h-8.125V31.829z
	 M12.385,31.829h2.247v-1.367h-2.247V31.829z"/>
<path fill="#1D1D1B" d="M12.341,29.283c-0.022,0-0.043-0.021-0.043-0.048V27.78c0-0.023,0.019-0.043,0.043-0.043h10.546
	c0.023,0,0.042,0.02,0.042,0.043v1.455c0,0.025-0.02,0.048-0.042,0.048H12.341z M14.718,29.192h8.125v-1.366h-8.125V29.192z
	 M12.385,29.192h2.247v-1.366h-2.247V29.192z"/>
<path fill="#1D1D1B" d="M12.341,16.097c-0.023,0-0.043-0.021-0.043-0.044V14.6c0-0.025,0.021-0.05,0.043-0.05h10.546
	c0.022,0,0.042,0.023,0.042,0.05v1.454c0,0.023-0.019,0.044-0.042,0.044L12.341,16.097L12.341,16.097z M14.718,16.01h8.125v-1.368
	h-8.125V16.01z M12.385,16.01h2.247v-1.368h-2.247V16.01z"/>
<path fill="#1D1D1B" d="M14.631,21.371l-0.028-0.004h-2.262c-0.024,0-0.043-0.019-0.043-0.043V19.87
	c0-0.024,0.019-0.044,0.043-0.044h10.546c0.023,0,0.042,0.02,0.042,0.044v1.454c0,0.024-0.019,0.043-0.042,0.043h-8.168v0.004
	H14.631z M14.718,21.28h8.125v-1.366h-8.125V21.28z M12.385,21.28h2.247v-1.366h-2.247V21.28z"/>
<path fill="#1D1D1B" d="M14.631,26.647l-0.028-0.004h-2.262c-0.024,0-0.043-0.021-0.043-0.043v-1.455
	c0-0.025,0.019-0.043,0.043-0.043h10.546c0.023,0,0.042,0.019,0.042,0.043V26.6c0,0.022-0.019,0.043-0.042,0.043h-8.168v0.004
	H14.631z M14.718,26.555h8.125v-1.367h-8.125V26.555z M12.385,26.555h2.247v-1.367h-2.247V26.555z"/>
<path fill="#1D1D1B" d="M12.341,24.009c-0.024,0-0.043-0.021-0.043-0.044v-1.458c0-0.022,0.019-0.043,0.043-0.043h10.546
	c0.023,0,0.042,0.021,0.042,0.043v1.458c0,0.021-0.019,0.044-0.042,0.044H12.341z M14.718,23.922h8.125v-1.371h-8.125V23.922z
	 M12.385,23.922h2.247v-1.371h-2.247V23.922z"/>
<path fill="#1D1D1B" d="M12.341,18.735c-0.023,0-0.043-0.021-0.043-0.043v-1.458c0-0.025,0.019-0.043,0.043-0.043h10.546
	c0.023,0,0.042,0.019,0.042,0.043v1.458c0,0.024-0.019,0.043-0.042,0.043H12.341z M14.718,18.647h8.125v-1.371h-8.125V18.647z
	 M12.385,18.647h2.247v-1.371h-2.247V18.647z"/>
<path fill="#007D34" d="M55.241,21.388c-0.182-0.789-0.329-1.199-0.526-1.464c-0.263-0.394-0.542-0.509-1.775-0.509h-1.166v8.083
	c0,1.298,0.131,1.463,1.691,1.563v0.46H48.75v-0.46c1.496-0.1,1.627-0.265,1.627-1.563v-8.083h-1.02
	c-1.363,0-1.691,0.132-1.905,0.509c-0.198,0.28-0.329,0.739-0.526,1.464H46.45c0.083-0.986,0.165-2.055,0.197-2.957h0.329
	c0.23,0.377,0.443,0.409,0.904,0.409h6.49c0.443,0,0.576-0.099,0.838-0.409h0.345c0,0.756,0.082,1.955,0.165,2.907L55.241,21.388z"
	/>
<path fill="#007D34" d="M67.874,24.05c0,3.55-2.481,5.719-5.487,5.719c-2.975,0-5.341-2.317-5.341-5.474
	c0-2.956,2.071-5.699,5.521-5.699C65.36,18.595,67.874,20.764,67.874,24.05 M58.722,23.836c0,3.088,1.692,5.34,4.009,5.34
	c1.824,0,3.466-1.527,3.466-4.683c0-3.467-1.807-5.307-3.959-5.307C60.398,19.187,58.722,20.764,58.722,23.836"/>
<path fill="#007D34" d="M79.077,29.653c-0.196,0-0.378,0-0.574-0.017c-1.232-0.066-1.923-0.43-2.662-1.496
	c-0.575-0.806-1.167-1.824-1.66-2.629c-0.278-0.459-0.558-0.657-1.413-0.657h-0.526v2.612c0,1.396,0.148,1.495,1.462,1.595v0.46
	h-4.321v-0.46c1.348-0.1,1.495-0.198,1.495-1.595v-6.604c0-1.396-0.131-1.446-1.413-1.562v-0.459h4.075
	c1.2,0,2.003,0.147,2.628,0.56c0.658,0.427,1.085,1.167,1.085,2.153c0,1.412-0.871,2.283-2.087,2.809
	c0.279,0.543,0.97,1.644,1.463,2.382c0.591,0.855,0.936,1.282,1.33,1.709c0.443,0.494,0.822,0.675,1.184,0.773L79.077,29.653z
	 M73.031,24.313c0.837,0,1.38-0.131,1.792-0.46c0.64-0.493,0.903-1.151,0.903-2.037c0-1.775-1.166-2.433-2.415-2.433
	c-0.478,0-0.756,0.065-0.887,0.165c-0.116,0.082-0.182,0.278-0.182,0.723v4.042H73.031z"/>
<path fill="#007D34" d="M94.649,19.301c-1.115,0.133-1.328,0.28-1.955,1.76c-0.443,1.066-2.185,5.24-3.416,8.625h-0.512
	c-1.101-3.006-2.445-6.539-3.398-8.922c-0.478-1.232-0.74-1.363-1.709-1.445V18.84h4.025v0.46c-1.166,0.133-1.232,0.248-0.972,0.971
	c0.429,1.167,1.629,4.338,2.729,7.164h0.033c0.821-2.055,2.067-5.257,2.596-6.901c0.313-0.937,0.213-1.068-1.117-1.233v-0.46h3.695
	V19.301z"/>
<path fill="#007D34" d="M104.21,26.925c-0.098,0.542-0.426,2.087-0.574,2.597h-7.918v-0.46c1.494-0.114,1.625-0.247,1.625-1.578
	v-6.54c0-1.479-0.131-1.528-1.414-1.644v-0.46h7.33c0,0.412,0.082,1.529,0.131,2.367l-0.477,0.081
	c-0.148-0.688-0.313-1.051-0.525-1.412c-0.229-0.344-0.674-0.46-1.857-0.46h-1.247c-0.511,0-0.541,0.033-0.541,0.526v3.729h1.543
	c1.479,0,1.562-0.131,1.774-1.231h0.476v3.155h-0.476c-0.215-1.185-0.33-1.281-1.758-1.281h-1.561v3.104
	c0,0.772,0.096,1.116,0.393,1.33c0.313,0.198,0.889,0.214,1.709,0.214c1.248,0,1.709-0.132,2.07-0.56
	c0.279-0.328,0.59-0.887,0.805-1.544L104.21,26.925z"/>
<path fill="#007D34" d="M115.2,29.653c-0.197,0-0.377,0-0.572-0.017c-1.234-0.066-1.924-0.43-2.664-1.496
	c-0.576-0.806-1.164-1.824-1.66-2.629c-0.277-0.459-0.557-0.657-1.412-0.657h-0.524v2.612c0,1.396,0.147,1.495,1.463,1.595v0.46
	h-4.322v-0.46c1.349-0.1,1.496-0.198,1.496-1.595v-6.604c0-1.396-0.131-1.446-1.412-1.562v-0.459h4.072
	c1.198,0,2.004,0.147,2.631,0.56c0.656,0.427,1.084,1.167,1.084,2.153c0,1.412-0.871,2.283-2.086,2.809
	c0.278,0.543,0.967,1.644,1.461,2.382c0.593,0.855,0.937,1.282,1.33,1.709c0.444,0.494,0.821,0.675,1.183,0.773L115.2,29.653z
	 M109.153,24.313c0.84,0,1.381-0.131,1.793-0.46c0.639-0.493,0.902-1.151,0.902-2.037c0-1.775-1.166-2.433-2.414-2.433
	c-0.478,0-0.756,0.065-0.89,0.165c-0.114,0.082-0.18,0.278-0.18,0.723v4.042H109.153z"/>
<path fill="#007D34" d="M126.667,25.019c-0.986,0.146-1.051,0.229-1.051,1.198v1.397c0,0.576,0.016,1.102,0.115,1.544
	c-1.021,0.248-2.365,0.609-3.681,0.609c-3.614,0-6.03-2.252-6.03-5.505c0-3.813,3.057-5.668,6.276-5.668
	c1.361,0,2.629,0.361,3.152,0.477c0.051,0.574,0.133,1.479,0.264,2.563l-0.459,0.099c-0.396-2.004-1.644-2.546-3.203-2.546
	c-2.516,0-4.354,1.839-4.354,4.879c0,2.366,1.396,5.125,4.568,5.125c0.559,0,1.067-0.114,1.43-0.295
	c0.328-0.182,0.524-0.378,0.524-1.068v-1.396c0-1.184-0.114-1.282-1.727-1.413v-0.444h4.174L126.667,25.019L126.667,25.019z"/>
<path fill="#007D34" d="M134.403,29.52v-0.459c1.035-0.132,1.184-0.265,0.971-0.904c-0.215-0.641-0.543-1.528-0.902-2.53h-3.5
	c-0.266,0.74-0.51,1.431-0.725,2.12c-0.361,1.036-0.213,1.201,1.02,1.315v0.459H127.7v-0.459c1.035-0.147,1.266-0.247,1.842-1.692
	l3.4-8.626l0.51-0.147c1.02,2.826,2.119,5.947,3.172,8.807c0.523,1.413,0.736,1.562,1.805,1.66v0.459h-4.025V29.52z M132.796,20.731
	h-0.035c-0.525,1.413-1.051,2.842-1.545,4.188h3.023L132.796,20.731z"/>
<path fill="#007D34" d="M147.218,21.388c-0.18-0.789-0.33-1.199-0.525-1.464c-0.262-0.394-0.543-0.509-1.772-0.509h-1.166v8.083
	c0,1.298,0.131,1.463,1.688,1.563v0.46h-4.713v-0.46c1.494-0.1,1.625-0.265,1.625-1.563v-8.083h-1.02
	c-1.363,0-1.689,0.132-1.904,0.509c-0.199,0.28-0.33,0.739-0.524,1.464h-0.479c0.084-0.986,0.166-2.055,0.199-2.957h0.326
	c0.23,0.377,0.445,0.409,0.906,0.409h6.488c0.444,0,0.575-0.099,0.838-0.409h0.348c0,0.756,0.08,1.955,0.162,2.907L147.218,21.388z"
	/>
<path fill="#007D34" d="M154.265,29.52v-0.459c1.034-0.132,1.184-0.265,0.969-0.904c-0.213-0.641-0.541-1.528-0.902-2.53h-3.498
	c-0.264,0.74-0.51,1.431-0.725,2.12c-0.361,1.036-0.213,1.201,1.02,1.315v0.459h-3.566v-0.459c1.035-0.147,1.265-0.247,1.842-1.692
	l3.398-8.626l0.51-0.147c1.021,2.826,2.121,5.947,3.172,8.807c0.525,1.413,0.738,1.562,1.81,1.66v0.459h-4.028V29.52z
	 M152.655,20.731h-0.033c-0.525,1.413-1.051,2.842-1.545,4.188h3.025L152.655,20.731z"/>
<path fill="#007D34" d="M50.827,33.856c-0.342,0.019-0.497,0.148-0.528,0.367c-0.031,0.191-0.057,0.423-0.057,0.864v0.68
	c0,0.658-0.1,1.183-0.447,1.556c-0.288,0.299-0.711,0.454-1.152,0.454c-0.411,0-0.804-0.087-1.102-0.322
	c-0.354-0.273-0.516-0.734-0.516-1.464v-1.463c0-0.584-0.063-0.628-0.523-0.672v-0.218h1.874v0.218
	c-0.455,0.044-0.516,0.088-0.516,0.672v1.351c0,0.936,0.335,1.477,1.008,1.477c0.74,0,1.064-0.561,1.064-1.602v-0.665
	c0-0.441-0.031-0.68-0.062-0.864c-0.031-0.219-0.181-0.344-0.604-0.367v-0.218h1.563v0.217H50.827z"/>
<path fill="#007D34" d="M58.083,33.856c-0.336,0.019-0.466,0.1-0.498,0.386c-0.019,0.194-0.056,0.485-0.056,1.033v2.471H57.23
	l-2.589-3.1h-0.019v1.399c0,0.549,0.03,0.822,0.049,1.01c0.031,0.273,0.137,0.393,0.597,0.411v0.218h-1.524v-0.218
	c0.348-0.025,0.492-0.125,0.516-0.394c0.024-0.205,0.062-0.479,0.062-1.027v-1.301c0-0.404-0.012-0.521-0.131-0.666
	c-0.112-0.146-0.254-0.199-0.516-0.224v-0.218h1.152l2.377,2.731h0.025v-1.096c0-0.548-0.038-0.839-0.049-1.021
	c-0.032-0.269-0.163-0.375-0.617-0.398v-0.218h1.519L58.083,33.856L58.083,33.856z"/>
<path fill="#007D34" d="M61.136,37.684v-0.218c0.461-0.045,0.517-0.089,0.517-0.61v-2.384c0-0.529-0.056-0.572-0.517-0.616v-0.218
	h1.867v0.218c-0.461,0.044-0.517,0.087-0.517,0.616v2.384c0,0.521,0.056,0.565,0.517,0.61v0.218H61.136z"/>
<path fill="#007D34" d="M70.34,33.862c-0.398,0.043-0.517,0.125-0.765,0.716c-0.206,0.479-0.772,1.894-1.258,3.175h-0.311
	c-0.423-1.139-1.008-2.639-1.27-3.279c-0.188-0.485-0.293-0.572-0.673-0.61v-0.224h1.855v0.224c-0.455,0.07-0.455,0.137-0.361,0.405
	c0.181,0.498,0.672,1.755,0.896,2.347h0.019c0.342-0.909,0.61-1.625,0.784-2.166c0.137-0.437,0.137-0.523-0.374-0.586v-0.224h1.457
	L70.34,33.862L70.34,33.862z"/>
<path fill="#007D34" d="M76.669,36.651c-0.039,0.279-0.169,0.847-0.219,1.033h-3.176v-0.218c0.53-0.045,0.593-0.081,0.593-0.61
	v-2.391c0-0.541-0.063-0.572-0.505-0.609v-0.218h2.932c0.006,0.112,0.038,0.548,0.063,0.934l-0.224,0.031
	c-0.063-0.22-0.144-0.424-0.256-0.536c-0.105-0.111-0.273-0.155-0.622-0.155h-0.3c-0.229,0-0.255,0.014-0.255,0.219v1.319h0.417
	c0.523,0,0.604-0.032,0.692-0.467h0.224v1.257h-0.224c-0.088-0.447-0.162-0.473-0.692-0.473H74.7v1.076
	c0,0.294,0.025,0.447,0.149,0.511c0.112,0.05,0.324,0.062,0.561,0.062c0.317,0,0.542-0.042,0.691-0.197
	c0.118-0.139,0.23-0.338,0.349-0.61L76.669,36.651z"/>
<path fill="#007D34" d="M83.518,37.74c-0.037,0-0.111-0.006-0.188-0.006c-0.783-0.037-1.026-0.211-1.275-0.604
	c-0.162-0.256-0.33-0.591-0.511-0.915c-0.099-0.192-0.211-0.268-0.411-0.272h-0.117v0.908c0,0.51,0.062,0.571,0.528,0.616v0.218
	h-1.88v-0.218c0.467-0.045,0.537-0.106,0.537-0.616V34.46c0-0.498-0.057-0.561-0.512-0.604v-0.218h1.75
	c0.541,0,0.859,0.062,1.107,0.235c0.248,0.162,0.422,0.442,0.422,0.828c0,0.547-0.359,0.84-0.775,1.014
	c0.086,0.182,0.321,0.599,0.504,0.886c0.223,0.343,0.354,0.541,0.479,0.672c0.137,0.143,0.236,0.219,0.379,0.268L83.518,37.74z
	 M81.178,35.698c0.262,0,0.473-0.044,0.609-0.168c0.211-0.174,0.299-0.423,0.299-0.74c0-0.66-0.386-0.902-0.734-0.902
	c-0.155,0-0.242,0.023-0.28,0.063c-0.044,0.037-0.056,0.1-0.056,0.229v1.52L81.178,35.698L81.178,35.698z"/>
<path fill="#007D34" d="M88.808,34.653c-0.132-0.393-0.361-0.854-0.871-0.854c-0.351,0-0.604,0.262-0.604,0.615
	c0,0.344,0.222,0.543,0.771,0.816c0.652,0.315,1.103,0.665,1.103,1.282c0,0.709-0.604,1.263-1.513,1.263
	c-0.225,0-0.442-0.031-0.631-0.087c-0.174-0.049-0.291-0.101-0.379-0.136c-0.055-0.156-0.139-0.681-0.182-1.061l0.219-0.068
	c0.123,0.399,0.492,1.098,1.09,1.098c0.379,0,0.623-0.265,0.623-0.654c0-0.367-0.274-0.597-0.74-0.847
	c-0.645-0.323-1.084-0.66-1.084-1.257c0-0.687,0.541-1.221,1.427-1.221c0.397,0,0.754,0.123,0.864,0.167
	c0.023,0.231,0.068,0.505,0.117,0.892L88.808,34.653z"/>
<path fill="#007D34" d="M92.284,37.684v-0.218c0.461-0.045,0.518-0.089,0.518-0.61v-2.384c0-0.529-0.057-0.572-0.518-0.616v-0.218
	h1.867v0.218c-0.459,0.044-0.519,0.087-0.519,0.616v2.384c0,0.521,0.06,0.565,0.519,0.61v0.218H92.284z"/>
<path fill="#007D34" d="M100.729,34.702c-0.076-0.325-0.162-0.529-0.273-0.642c-0.107-0.111-0.268-0.149-0.631-0.149h-0.283v2.944
	c0,0.528,0.061,0.565,0.607,0.61v0.218H98.12v-0.218c0.523-0.045,0.586-0.082,0.586-0.61v-2.944h-0.211
	c-0.512,0-0.621,0.069-0.717,0.168c-0.1,0.106-0.182,0.317-0.26,0.629h-0.228c0.024-0.455,0.063-0.908,0.076-1.226h0.149
	c0.099,0.144,0.18,0.155,0.355,0.155h2.5c0.17,0,0.254-0.036,0.361-0.155h0.149c0.007,0.261,0.035,0.809,0.068,1.207L100.729,34.702
	z"/>
<path fill="#007D34" d="M107.966,33.856c-0.4,0.044-0.523,0.155-0.748,0.521c-0.23,0.367-0.393,0.637-0.695,1.222
	c-0.088,0.168-0.112,0.235-0.112,0.43v0.797c0,0.561,0.051,0.597,0.604,0.646v0.212h-2.023v-0.212
	c0.529-0.043,0.586-0.087,0.586-0.646v-0.69c0-0.155-0.025-0.219-0.08-0.337c-0.17-0.343-0.398-0.761-0.771-1.413
	c-0.229-0.41-0.336-0.479-0.68-0.528v-0.218h1.779v0.218c-0.41,0.056-0.404,0.137-0.293,0.361c0.221,0.429,0.469,0.891,0.711,1.35
	c0.18-0.354,0.498-0.938,0.646-1.319c0.1-0.249,0.094-0.33-0.365-0.392v-0.218h1.442L107.966,33.856L107.966,33.856z"/>
<path fill="#007D34" d="M119.313,35.618c0,1.344-0.963,2.158-2.135,2.158c-1.244,0-2.109-0.914-2.109-2.11
	c0-1.068,0.76-2.121,2.186-2.121C118.388,33.545,119.313,34.384,119.313,35.618 M116.022,35.548c0,1.065,0.473,1.969,1.268,1.969
	c0.592,0,1.072-0.58,1.072-1.726c0-1.237-0.504-1.984-1.219-1.984C116.513,33.806,116.022,34.472,116.022,35.548"/>
<path fill="#007D34" d="M125.255,34.628c-0.066-0.236-0.143-0.418-0.248-0.535c-0.129-0.138-0.299-0.182-0.646-0.182h-0.311
	c-0.219,0-0.244,0.014-0.244,0.219v1.376h0.504c0.563,0,0.617-0.057,0.689-0.456h0.227v1.24h-0.227
	c-0.066-0.425-0.127-0.474-0.689-0.474h-0.504V36.8c0,0.586,0.051,0.622,0.592,0.667v0.218h-1.94v-0.218
	c0.455-0.045,0.517-0.081,0.517-0.667v-2.297c0-0.561-0.062-0.604-0.517-0.642v-0.224h2.948c0.007,0.104,0.039,0.585,0.068,0.945
	L125.255,34.628z"/>
<path fill="#007D34" d="M136.519,37.74c-0.037,0-0.113-0.006-0.187-0.006c-0.787-0.037-1.028-0.211-1.276-0.604
	c-0.162-0.256-0.33-0.591-0.513-0.915c-0.099-0.192-0.211-0.268-0.41-0.272h-0.116v0.908c0,0.51,0.063,0.571,0.526,0.616v0.218
	h-1.879v-0.218c0.467-0.045,0.535-0.106,0.535-0.616V34.46c0-0.498-0.056-0.561-0.511-0.604v-0.218h1.75
	c0.539,0,0.857,0.062,1.105,0.235c0.25,0.162,0.426,0.442,0.426,0.828c0,0.547-0.361,0.84-0.779,1.014
	c0.088,0.182,0.324,0.599,0.504,0.886c0.226,0.343,0.355,0.541,0.48,0.672c0.137,0.143,0.234,0.219,0.377,0.268L136.519,37.74z
	 M134.177,35.698c0.264,0,0.475-0.044,0.611-0.168c0.211-0.174,0.299-0.423,0.299-0.74c0-0.66-0.387-0.902-0.734-0.902
	c-0.156,0-0.242,0.023-0.281,0.063c-0.043,0.037-0.055,0.1-0.055,0.229v1.52L134.177,35.698L134.177,35.698z"/>
<path fill="#007D34" d="M143.681,35.618c0,1.344-0.966,2.158-2.138,2.158c-1.244,0-2.108-0.914-2.108-2.11
	c0-1.068,0.76-2.121,2.186-2.121C142.755,33.545,143.681,34.384,143.681,35.618 M140.388,35.548c0,1.065,0.473,1.969,1.27,1.969
	c0.592,0,1.07-0.58,1.07-1.726c0-1.237-0.504-1.984-1.22-1.984C140.88,33.806,140.388,34.472,140.388,35.548"/>
<path fill="#007D34" d="M150.063,37.684v-0.218c0.467-0.052,0.506-0.094,0.5-0.667l-0.015-2.396h-0.03l-1.377,3.237h-0.175
	l-1.271-3.176h-0.024l-0.071,1.624c-0.027,0.518-0.027,0.811,0,1.002c0.022,0.281,0.146,0.337,0.559,0.375v0.218h-1.494v-0.218
	c0.348-0.031,0.467-0.145,0.504-0.361c0.039-0.199,0.088-0.523,0.133-1.177l0.098-1.227c0.052-0.71,0.007-0.798-0.526-0.847v-0.218
	h1.287l1.2,2.727l1.222-2.727h1.252v0.218c-0.498,0.049-0.524,0.1-0.512,0.616l0.057,2.327c0.013,0.573,0.043,0.615,0.529,0.667
	v0.218L150.063,37.684L150.063,37.684z"/>
<path fill="#007D34" d="M158.351,36.651c-0.037,0.279-0.166,0.847-0.216,1.033h-3.176v-0.218c0.526-0.045,0.59-0.081,0.59-0.61
	v-2.391c0-0.541-0.063-0.572-0.504-0.609v-0.218h2.935c0.006,0.112,0.035,0.548,0.061,0.934l-0.225,0.031
	c-0.062-0.22-0.144-0.424-0.256-0.536c-0.104-0.111-0.273-0.155-0.621-0.155h-0.299c-0.23,0-0.254,0.014-0.254,0.219v1.319h0.415
	c0.523,0,0.603-0.032,0.689-0.467h0.225v1.257h-0.225c-0.089-0.447-0.16-0.473-0.689-0.473h-0.415v1.076
	c0,0.294,0.022,0.447,0.147,0.511c0.11,0.05,0.321,0.062,0.562,0.062c0.315,0,0.543-0.042,0.69-0.197
	c0.116-0.139,0.229-0.338,0.351-0.61L158.351,36.651z"/>
</svg>
